{
  "asset": {
    "version": "2.0",
    "generator": "THREE.GLTFExporter"
  },
  "scenes": [
    {
      "name": "Scene",
      "nodes": [
        7
      ]
    }
  ],
  "scene": 0,
  "nodes": [
    {
      "matrix": [
        0.8987940200606154,
        -0.2191855995584744,
        -0.379640600944783,
        0,
        0.4383712045054091,
        0.44939694552101583,
        0.7783785011878723,
        0,
        -2.5560974670213454e-8,
        -0.8660254482387881,
        0.4999999399792995,
        0,
        0,
        0.0781666487455368,
        -0.022087499499320984,
        1
      ],
      "name": "node_SceneLight_0_i1",
      "extras": {
        "name": "node_SceneLight_0_i1"
      }
    },
    {
      "matrix": [
        0.7660445508467126,
        0.4924039538708955,
        -0.4131756151087078,
        0,
        0.6427874786491641,
        -0.5868243478014397,
        0.49240371545232,
        0,
        2.2514791808703194e-8,
        -0.6427872960098915,
        -0.7660446895241382,
        0,
        0,
        0.06365620344877243,
        0.06020541116595268,
        1
      ],
      "name": "node_SceneLight_1_i2",
      "extras": {
        "name": "node_SceneLight_1_i2"
      }
    },
    {
      "matrix": [
        -0.2908647428269262,
        -0.055189063886274425,
        -0.9551712048106182,
        0,
        0.5663932381446841,
        0.7946722584579202,
        -0.21839122503485697,
        0,
        0.7711008773539234,
        -0.6045247675783045,
        -0.19988344806390224,
        0,
        4.076245307922363,
        5.903861999511719,
        -1.0054539442062378,
        1
      ],
      "name": "Light",
      "extras": {
        "name": "Light"
      }
    },
    {
      "matrix": [
        0.6859206666375535,
        -4.011331711240018e-9,
        -0.7276763385868836,
        0,
        0.6515582236083066,
        0.4452714146389205,
        0.6141703952861253,
        0,
        0.32401347963873484,
        -0.8953956629320512,
        0.30542086411130853,
        0,
        7.358891487121582,
        4.958309173583984,
        6.925790786743164,
        1
      ],
      "name": "Camera",
      "extras": {
        "name": "Camera"
      }
    },
    {
      "matrix": [
        1,
        0,
        0,
        0,
        0,
        1,
        0,
        0,
        0,
        0,
        1,
        0,
        0,
        -0.9099183678627014,
        0,
        1
      ],
      "name": "brush_Wire_g0_b0",
      "extras": {
        "name": "brush_Wire_g0_b0"
      },
      "mesh": 0
    },
    {
      "matrix": [
        1,
        0,
        0,
        0,
        0,
        1,
        0,
        0,
        0,
        0,
        1,
        0,
        0,
        -0.9099183678627014,
        0,
        1
      ],
      "name": "brush_Petal_g0_b0",
      "extras": {
        "name": "brush_Petal_g0_b0"
      },
      "mesh": 1
    },
    {
      "matrix": [
        1,
        0,
        0,
        0,
        0,
        1,
        0,
        0,
        0,
        0,
        1,
        0,
        0,
        -0.9099183678627014,
        0,
        1
      ],
      "name": "brush_Petal_g0_b1",
      "extras": {
        "name": "brush_Petal_g0_b1"
      },
      "mesh": 2
    },
    {
      "name": "TB_25.glb",
      "children": [
        0,
        1,
        2,
        3,
        4,
        5,
        6
      ]
    }
  ],
  "bufferViews": [
    {
      "buffer": 0,
      "byteOffset": 0,
      "byteLength": 10560,
      "target": 34962,
      "byteStride": 12
    },
    {
      "buffer": 0,
      "byteOffset": 10560,
      "byteLength": 10560,
      "target": 34962,
      "byteStride": 12
    },
    {
      "buffer": 0,
      "byteOffset": 21120,
      "byteLength": 7040,
      "target": 34962,
      "byteStride": 8
    },
    {
      "buffer": 0,
      "byteOffset": 28160,
      "byteLength": 7040,
      "target": 34962,
      "byteStride": 8
    },
    {
      "buffer": 0,
      "byteOffset": 35200,
      "byteLength": 9216,
      "target": 34963
    },
    {
      "buffer": 0,
      "byteOffset": 44416,
      "byteLength": 786000,
      "target": 34962,
      "byteStride": 12
    },
    {
      "buffer": 0,
      "byteOffset": 830416,
      "byteLength": 786000,
      "target": 34962,
      "byteStride": 12
    },
    {
      "buffer": 0,
      "byteOffset": 1616416,
      "byteLength": 524000,
      "target": 34962,
      "byteStride": 8
    },
    {
      "buffer": 0,
      "byteOffset": 2140416,
      "byteLength": 524000,
      "target": 34962,
      "byteStride": 8
    },
    {
      "buffer": 0,
      "byteOffset": 2664416,
      "byteLength": 352320,
      "target": 34963
    },
    {
      "buffer": 0,
      "byteOffset": 3016736,
      "byteLength": 24240,
      "target": 34962,
      "byteStride": 12
    },
    {
      "buffer": 0,
      "byteOffset": 3040976,
      "byteLength": 24240,
      "target": 34962,
      "byteStride": 12
    },
    {
      "buffer": 0,
      "byteOffset": 3065216,
      "byteLength": 16160,
      "target": 34962,
      "byteStride": 8
    },
    {
      "buffer": 0,
      "byteOffset": 3081376,
      "byteLength": 16160,
      "target": 34962,
      "byteStride": 8
    },
    {
      "buffer": 0,
      "byteOffset": 3097536,
      "byteLength": 11100,
      "target": 34963
    }
  ],
  "buffers": [
    {
      "byteLength": 3108636,
      "uri": "data:application/octet-stream;base64,"
    }
  ],
  "accessors": [
    {
      "bufferView": 0,
      "componentType": 5126,
      "count": 880,
      "max": [
        -0.16720762848854065,
        1.5325422286987305,
        0.38265952467918396
      ],
      "min": [
        -0.2628386616706848,
        0.8581871390342712,
        0.26972901821136475
      ],
      "type": "VEC3"
    },
    {
      "bufferView": 1,
      "componentType": 5126,
      "count": 880,
      "max": [
        0.983989417552948,
        0.9859857559204102,
        0.9869108200073242
      ],
      "min": [
        -0.9719687700271606,
        -0.9859853386878967,
        -0.9869014620780945
      ],
      "type": "VEC3"
    },
    {
      "bufferView": 2,
      "componentType": 5126,
      "count": 880,
      "max": [
        5.056546688079834,
        1
      ],
      "min": [
        0.8944951891899109,
        0
      ],
      "type": "VEC2"
    },
    {
      "bufferView": 3,
      "componentType": 5123,
      "count": 880,
      "max": [
        65535,
        65535,
        65535,
        65535
      ],
      "min": [
        65535,
        65535,
        65535,
        65535
      ],
      "type": "VEC4",
      "normalized": true
    },
    {
      "bufferView": 4,
      "componentType": 5123,
      "count": 4608,
      "max": [
        879
      ],
      "min": [
        0
      ],
      "type": "SCALAR"
    },
    {
      "bufferView": 5,
      "componentType": 5126,
      "count": 65500,
      "max": [
        -0.11233395338058472,
        1.5738381147384644,
        0.44250184297561646
      ],
      "min": [
        -0.3279026448726654,
        0.8314871191978455,
        0.17644044756889343
      ],
      "type": "VEC3"
    },
    {
      "bufferView": 6,
      "componentType": 5126,
      "count": 65500,
      "max": [
        0.9999910593032837,
        1,
        0.99997878074646
      ],
      "min": [
        -0.9999468326568604,
        -1,
        -0.9999958276748657
      ],
      "type": "VEC3"
    },
    {
      "bufferView": 7,
      "componentType": 5126,
      "count": 65500,
      "max": [
        0.9545454382896423,
        1
      ],
      "min": [
        0,
        0
      ],
      "type": "VEC2"
    },
    {
      "bufferView": 8,
      "componentType": 5123,
      "count": 65500,
      "max": [
        65535,
        65535,
        65535,
        65535
      ],
      "min": [
        14874,
        31412,
        60396,
        65535
      ],
      "type": "VEC4",
      "normalized": true
    },
    {
      "bufferView": 9,
      "componentType": 5123,
      "count": 176160,
      "max": [
        65499
      ],
      "min": [
        0
      ],
      "type": "SCALAR"
    },
    {
      "bufferView": 10,
      "componentType": 5126,
      "count": 2020,
      "max": [
        -0.17984633147716522,
        1.5953532457351685,
        0.3836299479007721
      ],
      "min": [
        -0.23955002427101135,
        1.3541195392608643,
        0.30939215421676636
      ],
      "type": "VEC3"
    },
    {
      "bufferView": 11,
      "componentType": 5126,
      "count": 2020,
      "max": [
        0.9947632551193237,
        1,
        0.9998095035552979
      ],
      "min": [
        -0.9999740123748779,
        -1,
        -0.9931580424308777
      ],
      "type": "VEC3"
    },
    {
      "bufferView": 12,
      "componentType": 5126,
      "count": 2020,
      "max": [
        0.9411764740943909,
        1
      ],
      "min": [
        0,
        0
      ],
      "type": "VEC2"
    },
    {
      "bufferView": 13,
      "componentType": 5123,
      "count": 2020,
      "max": [
        14874,
        31412,
        60396,
        65535
      ],
      "min": [
        14874,
        31412,
        60396,
        65535
      ],
      "type": "VEC4",
      "normalized": true
    },
    {
      "bufferView": 14,
      "componentType": 5123,
      "count": 5550,
      "max": [
        2019
      ],
      "min": [
        0
      ],
      "type": "SCALAR"
    }
  ],
  "materials": [
    {
      "pbrMetallicRoughness": {
        "metallicFactor": 1,
        "roughnessFactor": 1
      },
      "doubleSided": true,
      "name": "brush_Wire"
    },
    {
      "pbrMetallicRoughness": {
        "metallicFactor": 1,
        "roughnessFactor": 1
      },
      "doubleSided": true,
      "name": "brush_Petal"
    }
  ],
  "meshes": [
    {
      "primitives": [
        {
          "mode": 4,
          "attributes": {
            "POSITION": 0,
            "NORMAL": 1,
            "TEXCOORD_0": 2,
            "COLOR_0": 3
          },
          "indices": 4,
          "material": 0
        }
      ]
    },
    {
      "primitives": [
        {
          "mode": 4,
          "attributes": {
            "POSITION": 5,
            "NORMAL": 6,
            "TEXCOORD_0": 7,
            "COLOR_0": 8
          },
          "indices": 9,
          "material": 1
        }
      ]
    },
    {
      "primitives": [
        {
          "mode": 4,
          "attributes": {
            "POSITION": 10,
            "NORMAL": 11,
            "TEXCOORD_0": 12,
            "COLOR_0": 13
          },
          "indices": 14,
          "material": 1
        }
      ]
    }
  ]
}