{
    "asset" : {
        "generator" : "Khronos glTF Blender I/O v1.4.40",
        "version" : "2.0"
    },
    "scene" : 0,
    "scenes" : [
        {
            "name" : "Scene",
            "nodes" : [
                0,
                1,
                2,
                3,
                4
            ]
        }
    ],
    "nodes" : [
        {
            "mesh" : 0,
            "name" : "brush_Splatter_g0_b0"
        },
        {
            "name" : "node_SceneLight_0_i1",
            "rotation" : [
                0.4871850609779358,
                0.11247553676366806,
                -0.19481335580348969,
                0.8438292145729065
            ],
            "translation" : [
                0,
                0.0781666487455368,
                -0.022087499499320984
            ]
        },
        {
            "mesh" : 1,
            "name" : "brush_Streamers_g0_b0"
        },
        {
            "mesh" : 2,
            "name" : "brush_DiamondHull_g0_b0"
        },
        {
            "mesh" : 3,
            "name" : "brush_Smoke_g0_b0"
        }
    ],
    "materials" : [
        {
            "alphaCutoff" : 0.20000000298023224,
            "alphaMode" : "MASK",
            "doubleSided" : true,
            "name" : "brush_Splatter",
            "pbrMetallicRoughness" : {
                "metallicFactor" : 0
            }
        },
        {
            "alphaMode" : "BLEND",
            "doubleSided" : true,
            "name" : "brush_Streamers",
            "pbrMetallicRoughness" : {
                "metallicFactor" : 0
            }
        },
        {
            "alphaMode" : "BLEND",
            "doubleSided" : true,
            "name" : "brush_DiamondHull",
            "pbrMetallicRoughness" : {
                "metallicFactor" : 0
            }
        },
        {
            "alphaMode" : "BLEND",
            "doubleSided" : true,
            "name" : "brush_Smoke",
            "pbrMetallicRoughness" : {
                "metallicFactor" : 0
            }
        }
    ],
    "meshes" : [
        {
            "name" : "brush_Splatter_g0_b0",
            "primitives" : [
                {
                    "attributes" : {
                        "POSITION" : 0,
                        "NORMAL" : 1,
                        "TEXCOORD_0" : 2,
                        "COLOR_0" : 3
                    },
                    "indices" : 4,
                    "material" : 0
                }
            ]
        },
        {
            "name" : "brush_Streamers_g0_b0",
            "primitives" : [
                {
                    "attributes" : {
                        "POSITION" : 5,
                        "NORMAL" : 6,
                        "TEXCOORD_0" : 7,
                        "COLOR_0" : 8
                    },
                    "indices" : 9,
                    "material" : 1
                }
            ]
        },
        {
            "name" : "brush_DiamondHull_g0_b0",
            "primitives" : [
                {
                    "attributes" : {
                        "POSITION" : 10,
                        "NORMAL" : 11,
                        "TEXCOORD_0" : 12,
                        "COLOR_0" : 13
                    },
                    "indices" : 14,
                    "material" : 2
                }
            ]
        },
        {
            "name" : "brush_Smoke_g0_b0",
            "primitives" : [
                {
                    "attributes" : {
                        "POSITION" : 15,
                        "NORMAL" : 16,
                        "TEXCOORD_0" : 17,
                        "COLOR_0" : 18
                    },
                    "indices" : 19,
                    "material" : 3
                }
            ]
        }
    ],
    "accessors" : [
        {
            "bufferView" : 0,
            "componentType" : 5126,
            "count" : 48147,
            "max" : [
                0.925397515296936,
                1.38703191280365,
                -0.3509635627269745
            ],
            "min" : [
                0.5648735165596008,
                1.036786437034607,
                -0.8791006207466125
            ],
            "type" : "VEC3"
        },
        {
            "bufferView" : 1,
            "componentType" : 5126,
            "count" : 48147,
            "type" : "VEC3"
        },
        {
            "bufferView" : 2,
            "componentType" : 5126,
            "count" : 48147,
            "type" : "VEC2"
        },
        {
            "bufferView" : 3,
            "componentType" : 5123,
            "count" : 48147,
            "normalized" : true,
            "type" : "VEC4"
        },
        {
            "bufferView" : 4,
            "componentType" : 5123,
            "count" : 49131,
            "type" : "SCALAR"
        },
        {
            "bufferView" : 5,
            "componentType" : 5126,
            "count" : 10008,
            "max" : [
                0.9498804211616516,
                1.4163669347763062,
                -0.3215356767177582
            ],
            "min" : [
                0.5488266944885254,
                0.9940305948257446,
                -0.9211770296096802
            ],
            "type" : "VEC3"
        },
        {
            "bufferView" : 6,
            "componentType" : 5126,
            "count" : 10008,
            "type" : "VEC3"
        },
        {
            "bufferView" : 7,
            "componentType" : 5126,
            "count" : 10008,
            "type" : "VEC2"
        },
        {
            "bufferView" : 8,
            "componentType" : 5123,
            "count" : 10008,
            "normalized" : true,
            "type" : "VEC4"
        },
        {
            "bufferView" : 9,
            "componentType" : 5123,
            "count" : 29376,
            "type" : "SCALAR"
        },
        {
            "bufferView" : 10,
            "componentType" : 5126,
            "count" : 7425,
            "max" : [
                0.9252386093139648,
                1.3976460695266724,
                -0.35050472617149353
            ],
            "min" : [
                0.5710886120796204,
                1.0850552320480347,
                -0.8736961483955383
            ],
            "type" : "VEC3"
        },
        {
            "bufferView" : 11,
            "componentType" : 5126,
            "count" : 7425,
            "type" : "VEC3"
        },
        {
            "bufferView" : 12,
            "componentType" : 5126,
            "count" : 7425,
            "type" : "VEC2"
        },
        {
            "bufferView" : 13,
            "componentType" : 5123,
            "count" : 7425,
            "normalized" : true,
            "type" : "VEC4"
        },
        {
            "bufferView" : 14,
            "componentType" : 5123,
            "count" : 7425,
            "type" : "SCALAR"
        },
        {
            "bufferView" : 15,
            "componentType" : 5126,
            "count" : 96,
            "max" : [
                0.9666194915771484,
                1.3575665950775146,
                -0.349433571100235
            ],
            "min" : [
                0.5632799863815308,
                0.9082254767417908,
                -0.9171803593635559
            ],
            "type" : "VEC3"
        },
        {
            "bufferView" : 16,
            "componentType" : 5126,
            "count" : 96,
            "type" : "VEC3"
        },
        {
            "bufferView" : 17,
            "componentType" : 5126,
            "count" : 96,
            "type" : "VEC2"
        },
        {
            "bufferView" : 18,
            "componentType" : 5123,
            "count" : 96,
            "normalized" : true,
            "type" : "VEC4"
        },
        {
            "bufferView" : 19,
            "componentType" : 5123,
            "count" : 96,
            "type" : "SCALAR"
        }
    ],
    "bufferViews" : [
        {
            "buffer" : 0,
            "byteLength" : 577764,
            "byteOffset" : 0
        },
        {
            "buffer" : 0,
            "byteLength" : 577764,
            "byteOffset" : 577764
        },
        {
            "buffer" : 0,
            "byteLength" : 385176,
            "byteOffset" : 1155528
        },
        {
            "buffer" : 0,
            "byteLength" : 385176,
            "byteOffset" : 1540704
        },
        {
            "buffer" : 0,
            "byteLength" : 98262,
            "byteOffset" : 1925880
        },
        {
            "buffer" : 0,
            "byteLength" : 120096,
            "byteOffset" : 2024144
        },
        {
            "buffer" : 0,
            "byteLength" : 120096,
            "byteOffset" : 2144240
        },
        {
            "buffer" : 0,
            "byteLength" : 80064,
            "byteOffset" : 2264336
        },
        {
            "buffer" : 0,
            "byteLength" : 80064,
            "byteOffset" : 2344400
        },
        {
            "buffer" : 0,
            "byteLength" : 58752,
            "byteOffset" : 2424464
        },
        {
            "buffer" : 0,
            "byteLength" : 89100,
            "byteOffset" : 2483216
        },
        {
            "buffer" : 0,
            "byteLength" : 89100,
            "byteOffset" : 2572316
        },
        {
            "buffer" : 0,
            "byteLength" : 59400,
            "byteOffset" : 2661416
        },
        {
            "buffer" : 0,
            "byteLength" : 59400,
            "byteOffset" : 2720816
        },
        {
            "buffer" : 0,
            "byteLength" : 14850,
            "byteOffset" : 2780216
        },
        {
            "buffer" : 0,
            "byteLength" : 1152,
            "byteOffset" : 2795068
        },
        {
            "buffer" : 0,
            "byteLength" : 1152,
            "byteOffset" : 2796220
        },
        {
            "buffer" : 0,
            "byteLength" : 768,
            "byteOffset" : 2797372
        },
        {
            "buffer" : 0,
            "byteLength" : 768,
            "byteOffset" : 2798140
        },
        {
            "buffer" : 0,
            "byteLength" : 192,
            "byteOffset" : 2798908
        }
    ],
    "buffers" : [
        {
            "byteLength" : 2799100,
            "uri" : "data:application/octet-stream;base64,"
        }
    ]
}
