{
  "asset": {
    "version": "2.0",
    "generator": "THREE.GLTFExporter"
  },
  "scenes": [
    {
      "name": "Scene",
      "nodes": [
        6
      ]
    }
  ],
  "scene": 0,
  "nodes": [
    {
      "matrix": [
        0.8987940200606154,
        -0.2191855995584744,
        -0.379640600944783,
        0,
        0.4383712045054091,
        0.44939694552101583,
        0.7783785011878723,
        0,
        -2.5560974670213454e-8,
        -0.8660254482387881,
        0.4999999399792995,
        0,
        0,
        0.0781666487455368,
        -0.022087499499320984,
        1
      ],
      "name": "node_SceneLight_0_i1",
      "extras": {
        "name": "node_SceneLight_0_i1"
      }
    },
    {
      "matrix": [
        0.7660445508467126,
        0.4924039538708955,
        -0.4131756151087078,
        0,
        0.6427874786491641,
        -0.5868243478014397,
        0.49240371545232,
        0,
        2.2514791808703194e-8,
        -0.6427872960098915,
        -0.7660446895241382,
        0,
        0,
        0.06365620344877243,
        0.06020541116595268,
        1
      ],
      "name": "node_SceneLight_1_i2",
      "extras": {
        "name": "node_SceneLight_1_i2"
      }
    },
    {
      "matrix": [
        -0.2908647428269262,
        -0.055189063886274425,
        -0.9551712048106182,
        0,
        0.5663932381446841,
        0.7946722584579202,
        -0.21839122503485697,
        0,
        0.7711008773539234,
        -0.6045247675783045,
        -0.19988344806390224,
        0,
        4.076245307922363,
        5.903861999511719,
        -1.0054539442062378,
        1
      ],
      "name": "Light",
      "extras": {
        "name": "Light"
      }
    },
    {
      "matrix": [
        0.6859206666375535,
        -4.011331711240018e-9,
        -0.7276763385868836,
        0,
        0.6515582236083066,
        0.4452714146389205,
        0.6141703952861253,
        0,
        0.32401347963873484,
        -0.8953956629320512,
        0.30542086411130853,
        0,
        7.358891487121582,
        4.958309173583984,
        6.925790786743164,
        1
      ],
      "name": "Camera",
      "extras": {
        "name": "Camera"
      }
    },
    {
      "name": "brush_CoarseBristles_g0_b0",
      "extras": {
        "name": "brush_CoarseBristles_g0_b0"
      },
      "mesh": 0
    },
    {
      "name": "brush_Petal_g0_b0",
      "extras": {
        "name": "brush_Petal_g0_b0"
      },
      "mesh": 1
    },
    {
      "name": "TB11.glb",
      "children": [
        0,
        1,
        2,
        3,
        4,
        5
      ]
    }
  ],
  "bufferViews": [
    {
      "buffer": 0,
      "byteOffset": 0,
      "byteLength": 83568,
      "target": 34962,
      "byteStride": 12
    },
    {
      "buffer": 0,
      "byteOffset": 83568,
      "byteLength": 83568,
      "target": 34962,
      "byteStride": 12
    },
    {
      "buffer": 0,
      "byteOffset": 167136,
      "byteLength": 55712,
      "target": 34962,
      "byteStride": 8
    },
    {
      "buffer": 0,
      "byteOffset": 222848,
      "byteLength": 55712,
      "target": 34962,
      "byteStride": 8
    },
    {
      "buffer": 0,
      "byteOffset": 278560,
      "byteLength": 14160,
      "target": 34963
    },
    {
      "buffer": 0,
      "byteOffset": 292720,
      "byteLength": 332760,
      "target": 34962,
      "byteStride": 12
    },
    {
      "buffer": 0,
      "byteOffset": 625480,
      "byteLength": 332760,
      "target": 34962,
      "byteStride": 12
    },
    {
      "buffer": 0,
      "byteOffset": 958240,
      "byteLength": 221840,
      "target": 34962,
      "byteStride": 8
    },
    {
      "buffer": 0,
      "byteOffset": 1180080,
      "byteLength": 221840,
      "target": 34962,
      "byteStride": 8
    },
    {
      "buffer": 0,
      "byteOffset": 1401920,
      "byteLength": 153360,
      "target": 34963
    }
  ],
  "buffers": [
    {
      "byteLength": 1555280,
      "uri": "data:application/octet-stream;base64,"
    }
  ],
  "accessors": [
    {
      "bufferView": 0,
      "componentType": 5126,
      "count": 6964,
      "max": [
        0.30643850564956665,
        1.0089410543441772,
        0.24033308029174805
      ],
      "min": [
        -0.9269275069236755,
        0.844363808631897,
        -0.8434098362922668
      ],
      "type": "VEC3"
    },
    {
      "bufferView": 1,
      "componentType": 5126,
      "count": 6964,
      "max": [
        0.2559145390987396,
        0.9999819993972778,
        0.9398040771484375
      ],
      "min": [
        -0.9188051223754883,
        0.1781599223613739,
        -0.8597272634506226
      ],
      "type": "VEC3"
    },
    {
      "bufferView": 2,
      "componentType": 5126,
      "count": 6964,
      "max": [
        1,
        1
      ],
      "min": [
        0,
        0
      ],
      "type": "VEC2"
    },
    {
      "bufferView": 3,
      "componentType": 5123,
      "count": 6964,
      "max": [
        65535,
        65535,
        65535,
        65535
      ],
      "min": [
        65535,
        65535,
        65535,
        65535
      ],
      "type": "VEC4",
      "normalized": true
    },
    {
      "bufferView": 4,
      "componentType": 5123,
      "count": 7080,
      "max": [
        6963
      ],
      "min": [
        0
      ],
      "type": "SCALAR"
    },
    {
      "bufferView": 5,
      "componentType": 5126,
      "count": 27730,
      "max": [
        0.2130800485610962,
        1.2961678504943848,
        0.1046694740653038
      ],
      "min": [
        -0.749965488910675,
        0.8734332919120789,
        -0.7997563481330872
      ],
      "type": "VEC3"
    },
    {
      "bufferView": 6,
      "componentType": 5126,
      "count": 27730,
      "max": [
        0.9998487234115601,
        1,
        0.9999444484710693
      ],
      "min": [
        -0.9999748468399048,
        -1,
        -0.9999827742576599
      ],
      "type": "VEC3"
    },
    {
      "bufferView": 7,
      "componentType": 5126,
      "count": 27730,
      "max": [
        0.9791666865348816,
        1
      ],
      "min": [
        0,
        0
      ],
      "type": "VEC2"
    },
    {
      "bufferView": 8,
      "componentType": 5123,
      "count": 27730,
      "max": [
        65535,
        65535,
        65535,
        65535
      ],
      "min": [
        65535,
        65535,
        65535,
        65535
      ],
      "type": "VEC4",
      "normalized": true
    },
    {
      "bufferView": 9,
      "componentType": 5123,
      "count": 76680,
      "max": [
        27729
      ],
      "min": [
        0
      ],
      "type": "SCALAR"
    }
  ],
  "materials": [
    {
      "pbrMetallicRoughness": {
        "metallicFactor": 0,
        "roughnessFactor": 1
      },
      "alphaMode": "MASK",
      "alphaCutoff": 0.25,
      "doubleSided": true,
      "name": "brush_CoarseBristles.001"
    },
    {
      "pbrMetallicRoughness": {
        "metallicFactor": 1,
        "roughnessFactor": 1
      },
      "doubleSided": true,
      "name": "brush_Petal.001"
    }
  ],
  "meshes": [
    {
      "primitives": [
        {
          "mode": 4,
          "attributes": {
            "POSITION": 0,
            "NORMAL": 1,
            "TEXCOORD_0": 2,
            "COLOR_0": 3
          },
          "indices": 4,
          "material": 0
        }
      ]
    },
    {
      "primitives": [
        {
          "mode": 4,
          "attributes": {
            "POSITION": 5,
            "NORMAL": 6,
            "TEXCOORD_0": 7,
            "COLOR_0": 8
          },
          "indices": 9,
          "material": 1
        }
      ]
    }
  ]
}