{
  "asset": {
    "version": "2.0",
    "generator": "THREE.GLTFExporter"
  },
  "scenes": [
    {
      "name": "Scene",
      "nodes": [
        3
      ]
    }
  ],
  "scene": 0,
  "nodes": [
    {
      "matrix": [
        0.8987940200606154,
        -0.2191855995584744,
        -0.379640600944783,
        0,
        0.4383712045054091,
        0.44939694552101583,
        0.7783785011878723,
        0,
        -2.5560974670213454e-8,
        -0.8660254482387881,
        0.4999999399792995,
        0,
        0,
        0.0781666487455368,
        -0.022087499499320984,
        1
      ],
      "name": "node_SceneLight_0_i1",
      "extras": {
        "name": "node_SceneLight_0_i1"
      }
    },
    {
      "matrix": [
        0.7660445508467126,
        0.4924039538708955,
        -0.4131756151087078,
        0,
        0.6427874786491641,
        -0.5868243478014397,
        0.49240371545232,
        0,
        2.2514791808703194e-8,
        -0.6427872960098915,
        -0.7660446895241382,
        0,
        0,
        0.06365620344877243,
        0.06020541116595268,
        1
      ],
      "name": "node_SceneLight_1_i2",
      "extras": {
        "name": "node_SceneLight_1_i2"
      }
    },
    {
      "name": "brush_Lofted_g0_b0",
      "extras": {
        "name": "brush_Lofted_g0_b0"
      },
      "mesh": 0
    },
    {
      "name": "TB_16.glb",
      "children": [
        0,
        1,
        2
      ]
    }
  ],
  "bufferViews": [
    {
      "buffer": 0,
      "byteOffset": 0,
      "byteLength": 159624,
      "target": 34962,
      "byteStride": 12
    },
    {
      "buffer": 0,
      "byteOffset": 159624,
      "byteLength": 159624,
      "target": 34962,
      "byteStride": 12
    },
    {
      "buffer": 0,
      "byteOffset": 319248,
      "byteLength": 106416,
      "target": 34962,
      "byteStride": 8
    },
    {
      "buffer": 0,
      "byteOffset": 425664,
      "byteLength": 106416,
      "target": 34962,
      "byteStride": 8
    },
    {
      "buffer": 0,
      "byteOffset": 532080,
      "byteLength": 77856,
      "target": 34963
    }
  ],
  "buffers": [
    {
      "byteLength": 609936,
      "uri": "data:application/octet-stream;base64,"
    }
  ],
  "accessors": [
    {
      "bufferView": 0,
      "componentType": 5126,
      "count": 13302,
      "max": [
        0.6806710362434387,
        2.054823160171509,
        -1.211441993713379
      ],
      "min": [
        0.052941203117370605,
        0.9382449984550476,
        -1.8067048788070679
      ],
      "type": "VEC3"
    },
    {
      "bufferView": 1,
      "componentType": 5126,
      "count": 13302,
      "max": [
        0.9997076988220215,
        1,
        0.9999225735664368
      ],
      "min": [
        -0.9997077584266663,
        -1,
        -0.9999228119850159
      ],
      "type": "VEC3"
    },
    {
      "bufferView": 2,
      "componentType": 5126,
      "count": 13302,
      "max": [
        0.9959839582443237,
        1
      ],
      "min": [
        0,
        0
      ],
      "type": "VEC2"
    },
    {
      "bufferView": 3,
      "componentType": 5123,
      "count": 13302,
      "max": [
        65535,
        65535,
        65535,
        65535
      ],
      "min": [
        65535,
        65535,
        65535,
        65535
      ],
      "type": "VEC4",
      "normalized": true
    },
    {
      "bufferView": 4,
      "componentType": 5123,
      "count": 38928,
      "max": [
        13301
      ],
      "min": [
        0
      ],
      "type": "SCALAR"
    }
  ],
  "materials": [
    {
      "pbrMetallicRoughness": {
        "metallicFactor": 1,
        "roughnessFactor": 1
      },
      "name": "brush_Lofted"
    }
  ],
  "meshes": [
    {
      "primitives": [
        {
          "mode": 4,
          "attributes": {
            "POSITION": 0,
            "NORMAL": 1,
            "TEXCOORD_0": 2,
            "COLOR_0": 3
          },
          "indices": 4,
          "material": 0
        }
      ]
    }
  ]
}