{
  "asset": {
    "version": "2.0",
    "generator": "THREE.GLTFExporter"
  },
  "scenes": [
    {
      "name": "Scene",
      "nodes": [
        6
      ]
    }
  ],
  "scene": 0,
  "nodes": [
    {
      "matrix": [
        0.8987940200606154,
        -0.2191855995584744,
        -0.379640600944783,
        0,
        0.4383712045054091,
        0.44939694552101583,
        0.7783785011878723,
        0,
        -2.5560974670213454e-8,
        -0.8660254482387881,
        0.4999999399792995,
        0,
        0,
        0.0781666487455368,
        -0.022087499499320984,
        1
      ],
      "name": "node_SceneLight_0_i1",
      "extras": {
        "name": "node_SceneLight_0_i1"
      }
    },
    {
      "matrix": [
        0.7660445508467126,
        0.4924039538708955,
        -0.4131756151087078,
        0,
        0.6427874786491641,
        -0.5868243478014397,
        0.49240371545232,
        0,
        2.2514791808703194e-8,
        -0.6427872960098915,
        -0.7660446895241382,
        0,
        0,
        0.06365620344877243,
        0.06020541116595268,
        1
      ],
      "name": "node_SceneLight_1_i2",
      "extras": {
        "name": "node_SceneLight_1_i2"
      }
    },
    {
      "matrix": [
        -0.2908647428269262,
        -0.055189063886274425,
        -0.9551712048106182,
        0,
        0.5663932381446841,
        0.7946722584579202,
        -0.21839122503485697,
        0,
        0.7711008773539234,
        -0.6045247675783045,
        -0.19988344806390224,
        0,
        4.076245307922363,
        5.903861999511719,
        -1.0054539442062378,
        1
      ],
      "name": "Light",
      "extras": {
        "name": "Light"
      }
    },
    {
      "matrix": [
        0.6859206666375535,
        -4.011331711240018e-9,
        -0.7276763385868836,
        0,
        0.6515582236083066,
        0.4452714146389205,
        0.6141703952861253,
        0,
        0.32401347963873484,
        -0.8953956629320512,
        0.30542086411130853,
        0,
        7.358891487121582,
        4.958309173583984,
        6.925790786743164,
        1
      ],
      "name": "Camera",
      "extras": {
        "name": "Camera"
      }
    },
    {
      "name": "brush_CelVinyl_g0_b0",
      "extras": {
        "name": "brush_CelVinyl_g0_b0"
      },
      "mesh": 0
    },
    {
      "name": "brush_Embers_g0_b0",
      "extras": {
        "name": "brush_Embers_g0_b0"
      },
      "mesh": 1
    },
    {
      "matrix": [
        1,
        0,
        0,
        0,
        0,
        1,
        0,
        0,
        0,
        0,
        1,
        0,
        -1.435404165065929,
        -0.6830725715615851,
        0,
        1
      ],
      "name": "TB_9.glb",
      "children": [
        0,
        1,
        2,
        3,
        4,
        5
      ]
    }
  ],
  "bufferViews": [
    {
      "buffer": 0,
      "byteOffset": 0,
      "byteLength": 78432,
      "target": 34962,
      "byteStride": 12
    },
    {
      "buffer": 0,
      "byteOffset": 78432,
      "byteLength": 78432,
      "target": 34962,
      "byteStride": 12
    },
    {
      "buffer": 0,
      "byteOffset": 156864,
      "byteLength": 52288,
      "target": 34962,
      "byteStride": 8
    },
    {
      "buffer": 0,
      "byteOffset": 209152,
      "byteLength": 52288,
      "target": 34962,
      "byteStride": 8
    },
    {
      "buffer": 0,
      "byteOffset": 261440,
      "byteLength": 37860,
      "target": 34963
    },
    {
      "buffer": 0,
      "byteOffset": 299300,
      "byteLength": 12000,
      "target": 34962,
      "byteStride": 12
    },
    {
      "buffer": 0,
      "byteOffset": 311300,
      "byteLength": 12000,
      "target": 34962,
      "byteStride": 12
    },
    {
      "buffer": 0,
      "byteOffset": 323300,
      "byteLength": 8000,
      "target": 34962,
      "byteStride": 8
    },
    {
      "buffer": 0,
      "byteOffset": 331300,
      "byteLength": 8000,
      "target": 34962,
      "byteStride": 8
    },
    {
      "buffer": 0,
      "byteOffset": 339300,
      "byteLength": 2004,
      "target": 34963
    }
  ],
  "buffers": [
    {
      "byteLength": 341304,
      "uri": "data:application/octet-stream;base64,"
    }
  ],
  "accessors": [
    {
      "bufferView": 0,
      "componentType": 5126,
      "count": 6536,
      "max": [
        0.974522590637207,
        1.7170807123184204,
        0.28658124804496765
      ],
      "min": [
        0.38901618123054504,
        1.0527294874191284,
        -0.2952808439731598
      ],
      "type": "VEC3"
    },
    {
      "bufferView": 1,
      "componentType": 5126,
      "count": 6536,
      "max": [
        0.986439049243927,
        1,
        0.999715268611908
      ],
      "min": [
        -0.999875545501709,
        -1,
        -0.9982399344444275
      ],
      "type": "VEC3"
    },
    {
      "bufferView": 2,
      "componentType": 5126,
      "count": 6536,
      "max": [
        1,
        1
      ],
      "min": [
        0,
        0
      ],
      "type": "VEC2"
    },
    {
      "bufferView": 3,
      "componentType": 5123,
      "count": 6536,
      "max": [
        65535,
        65535,
        65535,
        65535
      ],
      "min": [
        65535,
        65535,
        65535,
        65535
      ],
      "type": "VEC4",
      "normalized": true
    },
    {
      "bufferView": 4,
      "componentType": 5123,
      "count": 18930,
      "max": [
        6535
      ],
      "min": [
        0
      ],
      "type": "SCALAR"
    },
    {
      "bufferView": 5,
      "componentType": 5126,
      "count": 1000,
      "max": [
        0.9428787231445312,
        1.1005295515060425,
        0.20594771206378937
      ],
      "min": [
        0.6031761765480042,
        0.8437663912773132,
        -0.21261000633239746
      ],
      "type": "VEC3"
    },
    {
      "bufferView": 6,
      "componentType": 5126,
      "count": 1000,
      "max": [
        0.9943169355392456,
        0.9982838034629822,
        0.9922637343406677
      ],
      "min": [
        -0.9946799874305725,
        -0.9959076046943665,
        -0.9653226733207703
      ],
      "type": "VEC3"
    },
    {
      "bufferView": 7,
      "componentType": 5126,
      "count": 1000,
      "max": [
        1,
        1
      ],
      "min": [
        0,
        0
      ],
      "type": "VEC2"
    },
    {
      "bufferView": 8,
      "componentType": 5123,
      "count": 1000,
      "max": [
        65535,
        65535,
        65535,
        65278
      ],
      "min": [
        65535,
        65535,
        65535,
        0
      ],
      "type": "VEC4",
      "normalized": true
    },
    {
      "bufferView": 9,
      "componentType": 5123,
      "count": 1002,
      "max": [
        999
      ],
      "min": [
        0
      ],
      "type": "SCALAR"
    }
  ],
  "materials": [
    {
      "pbrMetallicRoughness": {
        "baseColorFactor": [
          0.47843137254901963,
          0.9411764705882353,
          0.5333333333333333,
          1
        ],
        "metallicFactor": 0,
        "roughnessFactor": 1
      },
      "alphaMode": "MASK",
      "alphaCutoff": 0.5540000200271606,
      "doubleSided": true,
      "name": "brush_CelVinyl"
    },
    {
      "pbrMetallicRoughness": {
        "baseColorFactor": [
          0.03137254901960784,
          0.43529411764705883,
          0.5686274509803921,
          1
        ],
        "metallicFactor": 0,
        "roughnessFactor": 1
      },
      "alphaMode": "BLEND",
      "doubleSided": true,
      "name": "brush_Embers"
    }
  ],
  "meshes": [
    {
      "primitives": [
        {
          "mode": 4,
          "attributes": {
            "POSITION": 0,
            "NORMAL": 1,
            "TEXCOORD_0": 2,
            "COLOR_0": 3
          },
          "indices": 4,
          "material": 0
        }
      ]
    },
    {
      "primitives": [
        {
          "mode": 4,
          "attributes": {
            "POSITION": 5,
            "NORMAL": 6,
            "TEXCOORD_0": 7,
            "COLOR_0": 8
          },
          "indices": 9,
          "material": 1
        }
      ]
    }
  ]
}