{
  "asset": {
    "version": "2.0",
    "generator": "THREE.GLTFExporter"
  },
  "scenes": [
    {
      "name": "Scene",
      "nodes": [
        7
      ]
    }
  ],
  "scene": 0,
  "nodes": [
    {
      "matrix": [
        0.8987940200606154,
        -0.2191855995584744,
        -0.379640600944783,
        0,
        0.4383712045054091,
        0.44939694552101583,
        0.7783785011878723,
        0,
        -2.5560974670213454e-8,
        -0.8660254482387881,
        0.4999999399792995,
        0,
        0,
        0.0781666487455368,
        -0.022087499499320984,
        1
      ],
      "name": "node_SceneLight_0_i1",
      "extras": {
        "name": "node_SceneLight_0_i1"
      }
    },
    {
      "matrix": [
        0.7660445508467126,
        0.4924039538708955,
        -0.4131756151087078,
        0,
        0.6427874786491641,
        -0.5868243478014397,
        0.49240371545232,
        0,
        2.2514791808703194e-8,
        -0.6427872960098915,
        -0.7660446895241382,
        0,
        0,
        0.06365620344877243,
        0.06020541116595268,
        1
      ],
      "name": "node_SceneLight_1_i2",
      "extras": {
        "name": "node_SceneLight_1_i2"
      }
    },
    {
      "matrix": [
        -0.2908647428269262,
        -0.055189063886274425,
        -0.9551712048106182,
        0,
        0.5663932381446841,
        0.7946722584579202,
        -0.21839122503485697,
        0,
        0.7711008773539234,
        -0.6045247675783045,
        -0.19988344806390224,
        0,
        4.076245307922363,
        5.903861999511719,
        -1.0054539442062378,
        1
      ],
      "name": "Light",
      "extras": {
        "name": "Light"
      }
    },
    {
      "matrix": [
        0.6859206666375535,
        -4.011331711240018e-9,
        -0.7276763385868836,
        0,
        0.6515582236083066,
        0.4452714146389205,
        0.6141703952861253,
        0,
        0.32401347963873484,
        -0.8953956629320512,
        0.30542086411130853,
        0,
        7.358891487121582,
        4.958309173583984,
        6.925790786743164,
        1
      ],
      "name": "Camera",
      "extras": {
        "name": "Camera"
      }
    },
    {
      "name": "brush_WigglyGraphite_g0_b0",
      "extras": {
        "name": "brush_WigglyGraphite_g0_b0"
      },
      "mesh": 0
    },
    {
      "name": "brush_Icing_g0_b0",
      "extras": {
        "name": "brush_Icing_g0_b0"
      },
      "mesh": 1
    },
    {
      "name": "brush_Petal_g0_b0",
      "extras": {
        "name": "brush_Petal_g0_b0"
      },
      "mesh": 2
    },
    {
      "name": "TB38_color.glb",
      "children": [
        0,
        1,
        2,
        3,
        4,
        5,
        6
      ]
    }
  ],
  "bufferViews": [
    {
      "buffer": 0,
      "byteOffset": 0,
      "byteLength": 2736,
      "target": 34962,
      "byteStride": 12
    },
    {
      "buffer": 0,
      "byteOffset": 2736,
      "byteLength": 2736,
      "target": 34962,
      "byteStride": 12
    },
    {
      "buffer": 0,
      "byteOffset": 5472,
      "byteLength": 1824,
      "target": 34962,
      "byteStride": 8
    },
    {
      "buffer": 0,
      "byteOffset": 7296,
      "byteLength": 1824,
      "target": 34962,
      "byteStride": 8
    },
    {
      "buffer": 0,
      "byteOffset": 9120,
      "byteLength": 1332,
      "target": 34963
    },
    {
      "buffer": 0,
      "byteOffset": 10452,
      "byteLength": 20784,
      "target": 34962,
      "byteStride": 12
    },
    {
      "buffer": 0,
      "byteOffset": 31236,
      "byteLength": 20784,
      "target": 34962,
      "byteStride": 12
    },
    {
      "buffer": 0,
      "byteOffset": 52020,
      "byteLength": 13856,
      "target": 34962,
      "byteStride": 8
    },
    {
      "buffer": 0,
      "byteOffset": 65876,
      "byteLength": 13856,
      "target": 34962,
      "byteStride": 8
    },
    {
      "buffer": 0,
      "byteOffset": 79732,
      "byteLength": 15744,
      "target": 34963
    },
    {
      "buffer": 0,
      "byteOffset": 95476,
      "byteLength": 33120,
      "target": 34962,
      "byteStride": 12
    },
    {
      "buffer": 0,
      "byteOffset": 128596,
      "byteLength": 33120,
      "target": 34962,
      "byteStride": 12
    },
    {
      "buffer": 0,
      "byteOffset": 161716,
      "byteLength": 22080,
      "target": 34962,
      "byteStride": 8
    },
    {
      "buffer": 0,
      "byteOffset": 183796,
      "byteLength": 22080,
      "target": 34962,
      "byteStride": 8
    },
    {
      "buffer": 0,
      "byteOffset": 205876,
      "byteLength": 16260,
      "target": 34963
    }
  ],
  "buffers": [
    {
      "byteLength": 222136,
      "uri": "data:application/octet-stream;base64,"
    }
  ],
  "accessors": [
    {
      "bufferView": 0,
      "componentType": 5126,
      "count": 228,
      "max": [
        -0.584900975227356,
        1.2007629871368408,
        -0.6743612289428711
      ],
      "min": [
        -0.6877414584159851,
        1.1075102090835571,
        -0.8020825386047363
      ],
      "type": "VEC3"
    },
    {
      "bufferView": 1,
      "componentType": 5126,
      "count": 228,
      "max": [
        0.8621678352355957,
        0.8684254288673401,
        0.34395819902420044
      ],
      "min": [
        -0.724347710609436,
        -0.8097573518753052,
        -0.9775224328041077
      ],
      "type": "VEC3"
    },
    {
      "bufferView": 2,
      "componentType": 5126,
      "count": 228,
      "max": [
        3.3967366218566895,
        1
      ],
      "min": [
        0.15530751645565033,
        0.25
      ],
      "type": "VEC2"
    },
    {
      "bufferView": 3,
      "componentType": 5123,
      "count": 228,
      "max": [
        51858,
        2866,
        18001,
        65535
      ],
      "min": [
        51858,
        2866,
        18001,
        0
      ],
      "type": "VEC4",
      "normalized": true
    },
    {
      "bufferView": 4,
      "componentType": 5123,
      "count": 666,
      "max": [
        227
      ],
      "min": [
        0
      ],
      "type": "SCALAR"
    },
    {
      "bufferView": 5,
      "componentType": 5126,
      "count": 1732,
      "max": [
        -0.5702148079872131,
        1.1987519264221191,
        -0.6870660185813904
      ],
      "min": [
        -0.6919963955879211,
        1.1023352146148682,
        -0.7806822657585144
      ],
      "type": "VEC3"
    },
    {
      "bufferView": 6,
      "componentType": 5126,
      "count": 1732,
      "max": [
        0.9971765279769897,
        0.9997527003288269,
        0.9962665438652039
      ],
      "min": [
        -0.9971778988838196,
        -0.9997510313987732,
        -0.996266782283783
      ],
      "type": "VEC3"
    },
    {
      "bufferView": 7,
      "componentType": 5126,
      "count": 1732,
      "max": [
        1.8813855648040771,
        1
      ],
      "min": [
        0.06412657350301743,
        0
      ],
      "type": "VEC2"
    },
    {
      "bufferView": 8,
      "componentType": 5123,
      "count": 1732,
      "max": [
        65535,
        30656,
        41337,
        65535
      ],
      "min": [
        51858,
        2866,
        18001,
        65535
      ],
      "type": "VEC4",
      "normalized": true
    },
    {
      "bufferView": 9,
      "componentType": 5123,
      "count": 7872,
      "max": [
        1731
      ],
      "min": [
        0
      ],
      "type": "SCALAR"
    },
    {
      "bufferView": 10,
      "componentType": 5126,
      "count": 2760,
      "max": [
        -0.5102766156196594,
        1.231713056564331,
        -0.6540423035621643
      ],
      "min": [
        -0.8137025237083435,
        1.0479004383087158,
        -0.8257975578308105
      ],
      "type": "VEC3"
    },
    {
      "bufferView": 11,
      "componentType": 5126,
      "count": 2760,
      "max": [
        0.9879559874534607,
        1,
        0.9942573308944702
      ],
      "min": [
        -0.9993696212768555,
        -1,
        -0.9994136095046997
      ],
      "type": "VEC3"
    },
    {
      "bufferView": 12,
      "componentType": 5126,
      "count": 2760,
      "max": [
        0.9864864945411682,
        1
      ],
      "min": [
        0,
        0
      ],
      "type": "VEC2"
    },
    {
      "bufferView": 13,
      "componentType": 5123,
      "count": 2760,
      "max": [
        36591,
        40449,
        60396,
        65535
      ],
      "min": [
        16656,
        7174,
        59287,
        65535
      ],
      "type": "VEC4",
      "normalized": true
    },
    {
      "bufferView": 14,
      "componentType": 5123,
      "count": 8130,
      "max": [
        2759
      ],
      "min": [
        0
      ],
      "type": "SCALAR"
    }
  ],
  "materials": [
    {
      "pbrMetallicRoughness": {
        "metallicFactor": 0,
        "roughnessFactor": 1
      },
      "alphaMode": "MASK",
      "alphaCutoff": 0.5,
      "doubleSided": true,
      "name": "brush_WigglyGraphite"
    },
    {
      "pbrMetallicRoughness": {
        "metallicFactor": 0,
        "roughnessFactor": 0.8500000238418579
      },
      "name": "brush_Icing"
    },
    {
      "pbrMetallicRoughness": {
        "metallicFactor": 1,
        "roughnessFactor": 1
      },
      "doubleSided": true,
      "name": "brush_Petal"
    }
  ],
  "meshes": [
    {
      "primitives": [
        {
          "mode": 4,
          "attributes": {
            "POSITION": 0,
            "NORMAL": 1,
            "TEXCOORD_0": 2,
            "COLOR_0": 3
          },
          "indices": 4,
          "material": 0
        }
      ]
    },
    {
      "primitives": [
        {
          "mode": 4,
          "attributes": {
            "POSITION": 5,
            "NORMAL": 6,
            "TEXCOORD_0": 7,
            "COLOR_0": 8
          },
          "indices": 9,
          "material": 1
        }
      ]
    },
    {
      "primitives": [
        {
          "mode": 4,
          "attributes": {
            "POSITION": 10,
            "NORMAL": 11,
            "TEXCOORD_0": 12,
            "COLOR_0": 13
          },
          "indices": 14,
          "material": 2
        }
      ]
    }
  ]
}