{
    "asset" : {
        "generator" : "Khronos glTF Blender I/O v1.4.40",
        "version" : "2.0"
    },
    "scene" : 0,
    "scenes" : [
        {
            "name" : "Scene",
            "nodes" : [
                0,
                1,
                2,
                3,
                4,
                5
            ]
        }
    ],
    "nodes" : [
        {
            "mesh" : 0,
            "name" : "brush_Icing_g0_b0"
        },
        {
            "name" : "node_SceneLight_0_i1",
            "rotation" : [
                0.4871850609779358,
                0.11247553676366806,
                -0.19481335580348969,
                0.8438292145729065
            ],
            "translation" : [
                0.3685213029384613,
                1.1622120141983032,
                -1.2478419542312622
            ]
        },
        {
            "name" : "node_SceneLight_1_i2",
            "rotation" : [
                0.8830223083496094,
                0.321393758058548,
                -0.11697767674922943,
                0.3213936388492584
            ],
            "translation" : [
                0.3685213029384613,
                1.1477010250091553,
                -1.1655490398406982
            ]
        },
        {
            "mesh" : 1,
            "name" : "brush_Icing_g0_b1"
        },
        {
            "name" : "Light",
            "rotation" : [
                0.16907575726509094,
                0.7558803558349609,
                -0.27217137813568115,
                0.570947527885437
            ],
            "translation" : [
                4.076245307922363,
                5.903861999511719,
                -1.0054539442062378
            ]
        },
        {
            "name" : "Camera",
            "rotation" : [
                0.483536034822464,
                0.33687159419059753,
                -0.20870360732078552,
                0.7804827094078064
            ],
            "translation" : [
                7.358891487121582,
                4.958309173583984,
                6.925790786743164
            ]
        }
    ],
    "materials" : [
        {
            "name" : "brush_Icing",
            "pbrMetallicRoughness" : {
                "metallicFactor" : 0,
                "roughnessFactor" : 0.8500000238418579
            }
        }
    ],
    "meshes" : [
        {
            "name" : "brush_Icing_g0_b0",
            "primitives" : [
                {
                    "attributes" : {
                        "POSITION" : 0,
                        "NORMAL" : 1,
                        "TEXCOORD_0" : 2,
                        "COLOR_0" : 3
                    },
                    "indices" : 4,
                    "material" : 0
                }
            ]
        },
        {
            "name" : "brush_Icing_g0_b1",
            "primitives" : [
                {
                    "attributes" : {
                        "POSITION" : 5,
                        "NORMAL" : 6,
                        "TEXCOORD_0" : 7,
                        "COLOR_0" : 8
                    },
                    "indices" : 9,
                    "material" : 0
                }
            ]
        }
    ],
    "accessors" : [
        {
            "bufferView" : 0,
            "componentType" : 5126,
            "count" : 45670,
            "max" : [
                0.020182454958558083,
                1.6521997451782227,
                -0.22307538986206055
            ],
            "min" : [
                -0.304108202457428,
                0.9099578261375427,
                -0.4993528425693512
            ],
            "type" : "VEC3"
        },
        {
            "bufferView" : 1,
            "componentType" : 5126,
            "count" : 45670,
            "type" : "VEC3"
        },
        {
            "bufferView" : 2,
            "componentType" : 5126,
            "count" : 45670,
            "type" : "VEC2"
        },
        {
            "bufferView" : 3,
            "componentType" : 5123,
            "count" : 45670,
            "normalized" : true,
            "type" : "VEC4"
        },
        {
            "bufferView" : 4,
            "componentType" : 5123,
            "count" : 211221,
            "type" : "SCALAR"
        },
        {
            "bufferView" : 5,
            "componentType" : 5126,
            "count" : 6636,
            "max" : [
                -0.027896514162421227,
                1.543923258781433,
                -0.24825429916381836
            ],
            "min" : [
                -0.2986254394054413,
                1.0000758171081543,
                -0.4840579628944397
            ],
            "type" : "VEC3"
        },
        {
            "bufferView" : 6,
            "componentType" : 5126,
            "count" : 6636,
            "type" : "VEC3"
        },
        {
            "bufferView" : 7,
            "componentType" : 5126,
            "count" : 6636,
            "type" : "VEC2"
        },
        {
            "bufferView" : 8,
            "componentType" : 5123,
            "count" : 6636,
            "normalized" : true,
            "type" : "VEC4"
        },
        {
            "bufferView" : 9,
            "componentType" : 5123,
            "count" : 33600,
            "type" : "SCALAR"
        }
    ],
    "bufferViews" : [
        {
            "buffer" : 0,
            "byteLength" : 548040,
            "byteOffset" : 0
        },
        {
            "buffer" : 0,
            "byteLength" : 548040,
            "byteOffset" : 548040
        },
        {
            "buffer" : 0,
            "byteLength" : 365360,
            "byteOffset" : 1096080
        },
        {
            "buffer" : 0,
            "byteLength" : 365360,
            "byteOffset" : 1461440
        },
        {
            "buffer" : 0,
            "byteLength" : 422442,
            "byteOffset" : 1826800
        },
        {
            "buffer" : 0,
            "byteLength" : 79632,
            "byteOffset" : 2249244
        },
        {
            "buffer" : 0,
            "byteLength" : 79632,
            "byteOffset" : 2328876
        },
        {
            "buffer" : 0,
            "byteLength" : 53088,
            "byteOffset" : 2408508
        },
        {
            "buffer" : 0,
            "byteLength" : 53088,
            "byteOffset" : 2461596
        },
        {
            "buffer" : 0,
            "byteLength" : 67200,
            "byteOffset" : 2514684
        }
    ],
    "buffers" : [
        {
            "byteLength" : 2581884,
            "uri" : "data:application/octet-stream;base64,"
        }
    ]
}
